<svg xmlns="http://www.w3.org/2000/svg" xmlns:xlink="http://www.w3.org/1999/xlink" viewBox="0 0 700 700"><!-- Source: https://football-logos.cc --><g transform="matrix(1.25 0 0 -1.25 0 700)" data-source="https://football-logos.cc"><path fill="#fff" d="M0 280.011c0 154.63 125.365 279.99 280.003 279.99S560 434.64 560 280.01C560 125.375 434.64.001 280.003.001S0 125.374 0 280.01"></path><path fill="#293c8b" d="M280.344 474.59c-107.103 0-193.916-86.824-193.916-193.948 0-107.113 86.813-193.931 193.916-193.931s193.928 86.818 193.928 193.931c0 107.124-86.824 193.948-193.928 193.948m270.001-193.948c0-149.13-120.88-270.01-270-270.01-149.116 0-270.002 120.88-270.002 270.01 0 149.148 120.886 270.02 270.001 270.02 149.122 0 270.001-120.872 270.001-270.02"></path><path fill="#c2c3c4" d="M84.37 280.011c0 108.05 87.584 195.64 195.63 195.64 108.051 0 195.63-87.59 195.63-195.64 0-108.033-87.579-195.64-195.63-195.64-108.046 0-195.63 87.607-195.63 195.64"></path><path fill="#fff" d="M95.13 280.011c0 102.099 82.774 184.878 184.874 184.878s184.874-82.78 184.874-184.878S382.104 95.15 280.004 95.15 95.13 177.912 95.13 280.011M64.639 365.193l5.202 11.803q1.461 3.306.683 5.472c-.507 1.466-1.818 2.645-3.918 3.565-2.039.91-3.758 1.014-5.174.353-1.427-.667-2.65-2.15-3.687-4.491L52.72 370.45zm-18.03 2.27 1.046 2.375 6.189 14.03c1.636 3.747 3.708 6.238 6.2 7.477 2.479 1.246 5.284 1.152 8.42-.225 3.08-1.367 5.058-3.434 5.901-6.238.204-.69.353-1.411.424-2.16l.733.611c2.171 1.615 4.745 1.808 7.682.6l6.53-2.644c1.07-.43 1.89-.634 2.458-.595.567.038 1.168.32 1.818.87l.744-.336-2.579-5.869c-.347 0-1.168.204-2.435.612s-2.668.91-4.188 1.488l-2.827 1.14c-2.216.882-4.023 1.053-5.395.447-1.378-.584-2.59-2.033-3.593-4.31l-4.982-11.345 15.187-6.696-1.041-2.375-1.058-2.38zM109.095 416.286c-.882 3.687-3.218 6.91-7.02 9.66-3.814 2.755-7.616 3.967-11.402 3.675-3.791-.314-6.877-2.116-9.241-5.367-2.353-3.262-3.092-6.74-2.188-10.453.898-3.687 3.246-6.916 7.065-9.666 3.785-2.75 7.577-3.967 11.368-3.653 3.775.325 6.85 2.116 9.214 5.356 2.358 3.268 3.102 6.75 2.204 10.448m-10.988-20.874c-5.048-.634-10.024.838-14.934 4.387-4.932 3.56-7.896 7.83-8.888 12.834-1.003 5.003.132 9.77 3.422 14.31 3.295 4.569 7.472 7.147 12.536 7.765 5.053.622 10.03-.86 14.961-4.42 4.921-3.554 7.87-7.814 8.867-12.806.992-4.993-.154-9.77-3.46-14.322-3.274-4.54-7.446-7.13-12.504-7.748M142.54 458.715c2.69-3.973 3.83-7.957 3.439-11.963-.397-4-2.298-7.533-5.676-10.58q-5.911-5.366-13.104-4.442c-4.8.59-9.275 3.202-13.44 7.798-4.172 4.606-6.272 9.395-6.321 14.321-.039 4.927 1.99 9.247 6.089 12.95 3.23 2.926 6.63 4.502 10.217 4.7q5.355.331 9.952-3.488l-3.731-3.372c-2.089 1.57-4.304 2.237-6.63 2.022-2.336-.231-4.606-1.339-6.788-3.328-2.877-2.59-4.205-5.72-3.995-9.368.215-3.642 1.928-7.268 5.169-10.844 3.438-3.792 6.844-5.968 10.21-6.547 3.373-.546 6.564.529 9.556 3.224 2.215 2.022 3.444 4.37 3.67 7.059q.345 4.051-2.359 8.475zM141.025 487.527l2.227 1.306 2.253 1.339 8.046-13.672 17.386 10.261-8.04 13.644 2.22 1.306 2.249 1.34 19.584-33.24-2.226-1.312-2.248-1.328-9.208 15.622-17.386-10.244 9.208-15.627-2.232-1.3-2.243-1.345zM201.797 480.857l9 3.085c3.526 1.18 5.835 3.329 6.926 6.42 1.08 3.092.87 6.86-.65 11.33-1.521 4.496-3.62 7.637-6.299 9.45-2.684 1.808-5.714 2.155-9.109.998l-9.417-3.202zm-15.92 30.583 2.458.837 12.52 4.26c4.618 1.56 8.861 1.18 12.724-1.19 3.852-2.38 6.734-6.343 8.624-11.914 1.896-5.56 1.995-10.448.309-14.702-1.67-4.238-4.888-7.17-9.655-8.778l-12.118-4.128-2.457-.843zM244.66 504.083l12.019 1.576-8.128 16.162h.033zm.474 23.006 2.926.38 2.948.38 18.736-36.407-2.772-.364-2.782-.375-5.357 10.591-15.22-1.994-2.562-11.622-2.65-.342-2.684-.358zM278.706 491.27l1.659 38.48 2.595-.089 2.623-.126-1.46-33.907 19.49-.837-.104-2.298-.099-2.276zM313.042 488.913l8.337 37.56 27.493-6.095-.49-2.226-.502-2.243-22.373 4.96-2.563-11.556 20.417-4.524-.49-2.249-.507-2.226-20.417 4.53-2.783-12.592 22.654-5.025-.496-2.249-.496-2.231zM383.17 482.23l10.652-5.792 2.931 17.837.034-.016zm13.92 18.316 2.6-1.438 2.618-1.422-6.299-40.469-2.457 1.339-2.463 1.34 1.917 11.78-13.457 7.352-8.976-7.952-2.342 1.295-2.392 1.3zM406.786 455.866l4.519-3.362-3.4-4.562-4.514 3.361zM418.429 439.776l26.847 27.64 19.171-18.614-1.614-1.664-1.61-1.653-15.434 15.01-8.19-8.453 13.513-13.148-1.598-1.648-1.61-1.658-13.517 13.137-12.233-12.586-1.852 1.796zM448.312 416.555l3.45-4.359-4.475-3.543-3.46 4.397zM483.638 377.467c-4.447-1.79-8.575-2.055-12.404-.82-3.82 1.245-6.872 3.834-9.142 7.797-2.651 4.595-3.158 9.186-1.549 13.737 1.598 4.563 5.103 8.404 10.492 11.5 5.384 3.092 10.487 4.117 15.314 3.13 4.844-1.013 8.624-3.9 11.38-8.69 2.165-3.785 2.964-7.444 2.419-10.97q-.809-5.315-5.528-9l-2.518 4.392c1.978 1.692 3.097 3.714 3.362 6.029.275 2.325-.326 4.76-1.786 7.323-1.923 3.35-4.69 5.301-8.299 5.863-3.604.563-7.489-.352-11.671-2.744-4.43-2.54-7.274-5.417-8.547-8.59q-1.894-4.744 1.13-9.991c1.482-2.585 3.515-4.282 6.089-5.064 2.568-.8 5.494-.629 8.75.48zM480.498 362.157l2.05-5.213-5.318-2.083-2.044 5.213zM171.293 91.8l-11.363 6.31 1.108 2.012 1.119 2.011 27.315-15.187-1.113-1.995-1.118-2.006-11.369 6.32-16.531-29.728-2.265 1.256-2.304 1.279zM192.566 85.499l2.408-.91 2.435-.909-5.576-14.828 18.917-7.125 5.594 14.817 2.402-.92 2.441-.904L207.61 38.65l-2.408.909-2.44.92 6.38 16.967-18.923 7.125-6.387-16.961-2.413.892-2.436.915zM219.777 35.24l7.83 37.774 27.603-5.736-.474-2.237-.463-2.216-22.467 4.64-2.408-11.643 20.505-4.25-.468-2.242-.469-2.248-20.505 4.265-2.634-12.68 22.753-4.728-.457-2.226-.474-2.22zM282.753 31.761l9.5.573c3.714.193 6.519 1.653 8.398 4.326q2.817 4.018 2.402 11.07c-.275 4.728-1.454 8.332-3.554 10.796-2.094 2.452-4.926 3.581-8.514 3.366l-9.94-.562zm-7.197 33.73 2.595.17 13.22.756c4.882.27 8.872-1.24 11.958-4.563 3.086-3.312 4.794-7.908 5.136-13.793.341-5.885-.86-10.63-3.632-14.283-2.755-3.632-6.64-5.61-11.66-5.902l-12.807-.722-2.584-.165zM324.136 47.824l11.809 2.722-9.65 15.325.04.017zm-1.747 22.968 2.876.667 2.899.672 22.186-34.457-2.74-.645-2.727-.628-6.348 10.023-14.961-3.455-1.428-11.814-2.606-.6-2.634-.618zM358.717 40.721l-13.76 35.973 2.402.931 2.436.926 12.129-31.697 18.267 6.993.833-2.154.804-2.133zM390.583 53.655l-18.505 33.74 24.715 13.534 1.097-2 1.096-2.011-20.135-11.038 5.67-10.343 18.46 10.117 1.103-2.011 1.09-2-18.449-10.118 6.227-11.368 20.422 11.176 1.097-1.995 1.108-2z"></path><path fill="#293c8b" d="M177.411 180.954s6.464-13.204 8.206-19.65c1.741-6.454 1.245-9.953 1.245-9.953l-4.97-3.477-.502-2.237 2.243-4.723 3.23-3.482s5.218-2.74 7.95-3.962c2.74-1.257 15.667-4.745 21.387-4.987 5.72-.237 15.91-.49 24.61-4.221 8.702-3.737 19.387-10.437 23.867-11.93 4.485-1.494 26.605-5.726 40.029 2.738 13.423 8.448 22.378 12.173 34.055 13.413 11.688 1.245 28.098 1.757 34.568 7.698 6.469 5.984 9.45 10.955 7.951 11.208-1.482.232-3.973 2.733-3.973 2.733l-1.747 1.99s1.99 14.911 5.968 21.375c3.984 6.458 6.15 11.214 6.15 11.214s-16.096-11.964-28.27-13.705c-12.183-1.741-20.642-.231-17.401-7.946 3.229-7.715 4.469-12.928 4.469-12.928h-15.419s-7.456.237-15.903-3.725c-8.46-3.984-17.656-12.927-29.344-14.184-11.677-1.24-18.642 2.48-27.845 8.216-9.192 5.71-16.912 9.892-28.093 9.914-11.186.016-14.168-.22-14.168-.22s.744 4.727 2.48 7.951c1.741 3.23 5.224 8.85.998 10.095 0 0-14.174 2.337-11.942 2.337 0 0-16.653 4.981-13.925 3.73z"></path><path fill="#848788" d="M216.768 150.686h-1.482c0 2.325 1.152 4.888 2.744 8.42.568 1.284 1.224 2.711 1.885 4.287l1.367-.567a131 131 0 0 0-1.89-4.332c-1.527-3.366-2.624-5.802-2.624-7.808M347.147 150.686h-1.494c0 2.006-1.102 4.442-2.623 7.825a138 138 0 0 0-1.89 4.315l1.372.567c.667-1.576 1.312-3.003 1.885-4.281 1.593-3.538 2.75-6.095 2.75-8.426M353.62 147.646l-.225 1.466c12.509 1.934 15.27 6.552 16.338 10.817l1.444-.342c-1.664-6.74-6.916-10.321-17.556-11.941"></path><path fill="#848788" d="m356.225 143.932-.232 1.472c11.854 1.868 14.52 6.232 15.617 10.712l1.45-.358c-1.681-6.778-6.547-10.217-16.835-11.826"></path><path fill="#848788" d="m359.484 139.985-.298 1.466c10.834 2.155 13.512 5.395 14.906 11.021l1.455-.375c-1.967-7.896-7.158-10.337-16.063-12.112"></path><path fill="#848788" d="m362.634 135.737-.375 1.449c10.78 2.739 13.694 6.546 15.094 12.2l1.455-.37c-1.5-6.044-4.723-10.375-16.174-13.28M345.414 159.902c-1.042 2.176-1.146 3.874-.336 5.152 1.592 2.502 6.177 2.524 10.63 2.502h.314c5.918 0 23.871 6.37 27.007 10.161l1.152-.948c-3.715-4.49-22.263-10.695-28.16-10.695h-.314c-3.857 0-8.216 0-9.362-1.813-.513-.816-.375-2.067.413-3.731z"></path><path fill="#848788" d="M349.375 159.97c-.254.308-1.025 1.211-.617 2.148.578 1.345 2.92 1.67 10.117 1.995l.066-1.499c-2.915-.132-8.315-.364-8.817-1.091.017 0 .055-.187.391-.579zM368.169 164.602l-.364 1.472c5.808 1.41 10.614 4.094 12.438 5.554l.947-1.157c-1.934-1.56-6.987-4.38-13.021-5.869M369.956 160.71l-.348 1.443a39 39 0 0 1 8.255 3.047l.656-1.339a42.2 42.2 0 0 0-8.563-3.152M371.831 156.458l-.347 1.449c1.57.38 3.18.882 4.783 1.504l.54-1.394c-1.67-.622-3.328-1.162-4.976-1.56M344.54 156.235v1.493c4.099 0 9.94.463 14.41 2.706 4.342 2.16 7.295 2.81 8.778 1.895.457-.286 1.014-.87 1.014-1.978h-1.494c0 .529-.215.65-.303.705-.733.469-3.053.182-7.334-1.961-4.729-2.364-10.818-2.86-15.072-2.86M345.995 152.422v1.504c4.105 0 9.947.447 14.416 2.678 2.463 1.251 4.59 2.012 6.138 2.249l.22-1.488c-1.404-.199-3.366-.915-5.692-2.072-4.722-2.364-10.811-2.871-15.082-2.871"></path><path fill="#848788" d="M281.208 131.55c-7.725 0-14.713 1.77-27.536 10.718-.11.088-10.883 7.318-23.8 7.318h-.804c-13.435 0-33.676 0-36.144 13.143-.27 1.36-.028 2.364.744 2.997 1.895 1.56 6.183-.033 11.175-2.121l.816-.32c2.606-1.13 10.018-3.61 13.032-1.592.931.595 1.378 1.592 1.378 3.036-.149 3.885-4.095 4.364-9.65 4.563-1.961.093-3.818.165-5.212.562-1.224.198-16.962 2.843-27.454 11.081 3.543-6.54 9.814-19.534 9.814-29.563h-1.493c0 13.263-11.842 32.732-11.963 32.92l1.184.903c9.826-10.602 29.989-13.853 30.193-13.875l.088-.033c1.223-.364 3.02-.42 4.904-.49 4.839-.21 10.867-.442 11.082-6.051 0-1.968-.689-3.417-2.05-4.31-4.309-2.849-14.024 1.29-14.437 1.472l-.805.341c-2.91 1.196-8.293 3.444-9.66 2.32-.309-.231-.38-.777-.215-1.57 2.237-11.925 21.74-11.925 34.673-11.903h.804c13.38 0 24.191-7.285 24.643-7.593 13.815-9.655 20.51-10.454 26.694-10.454 6.193 0 12.889.8 26.687 10.448.469.314 11.28 7.599 24.66 7.599h.81c12.939-.016 32.435-.022 34.672 11.903.16.793.078 1.339-.22 1.57-1.361 1.124-6.767-1.124-9.665-2.32l-.816-.341c-.391-.182-10.112-4.32-14.421-1.472-1.361.893-2.045 2.342-2.045 4.293.215 5.626 6.233 5.858 11.071 6.067 1.901.072 3.681.127 4.905.49l.104.034c.193.022 20.356 3.273 30.176 13.875l1.185-.904c-.121-.187-11.964-19.667-11.964-32.92h-1.487c0 10.03 6.265 23.023 9.82 29.564-10.504-8.238-26.236-10.883-27.465-11.081-1.394-.397-3.24-.469-5.208-.562-5.549-.199-9.5-.678-9.643-4.607 0-1.4.44-2.397 1.36-2.992 3.032-2.017 10.449.463 13.039 1.587l.804.325c5.004 2.088 9.291 3.68 11.192 2.121.76-.633 1.025-1.636.733-3.014-2.446-13.126-22.714-13.126-36.127-13.126h-.81c-12.933 0-23.695-7.23-23.811-7.318-12.818-8.949-19.8-10.718-27.536-10.718"></path><path fill="#848788" d="M281.208 109.115c-15.06 0-23.326 5.081-28.787 8.442-.562.342-1.113.684-1.63 1.003l-.453.254c-5.637 3.372-14.156 8.442-28.22 8.954-19.016.265-30.55 6.233-31.443 6.718-4.452 1.807-10.348 7.852-10.293 11.621.022 1.3.744 2.276 2.055 2.805 6.144 3.092 9.401 12.013 10.503 15.716l1.433-.419c-1.163-3.896-4.607-13.313-11.297-16.658l-.082-.033c-.76-.292-1.113-.727-1.125-1.45-.038-2.815 5.236-8.54 9.402-10.21l.082-.033c.116-.072 11.804-6.304 30.804-6.58 14.46-.518 23.183-5.698 28.947-9.142l.452-.27c.524-.32 1.075-.645 1.648-.997 5.317-3.273 13.357-8.227 28.004-8.227 14.659 0 22.693 4.954 28.01 8.227.58.352 1.13.678 1.66.997l.44.27c5.77 3.428 14.482 8.624 28.936 9.142 19.012.276 30.71 6.508 30.82 6.58l.078.033c4.171 1.67 9.434 7.395 9.395 10.21 0 .723-.352 1.158-1.118 1.45l-.072.033c-6.69 3.345-10.134 12.762-11.308 16.658l1.428.42c1.113-3.704 4.364-12.625 10.508-15.717 1.317-.529 2.034-1.504 2.072-2.805.044-3.769-5.852-9.814-10.299-11.621-.893-.485-12.437-6.453-31.47-6.718-14.053-.512-22.572-5.598-28.204-8.954l-.446-.254c-.518-.32-1.07-.66-1.631-1.003-5.467-3.361-13.722-8.442-28.799-8.442"></path><path fill="#848788" d="M208.815 147.646c-10.646 1.62-15.892 5.202-17.562 11.941l1.444.342c1.063-4.265 3.83-8.883 16.344-10.817z"></path><path fill="#848788" d="M206.202 143.932c-10.283 1.61-15.154 5.048-16.846 11.826l1.45.358c1.107-4.48 3.774-8.844 15.627-10.712z"></path><path fill="#848788" d="M202.94 139.985c-11.538 2.282-14.547 6.018-16.057 12.112l1.455.375c1.389-5.626 4.072-8.866 14.906-11.021z"></path><path fill="#848788" d="M199.793 135.737c-11.451 2.904-14.675 7.235-16.18 13.28l1.455.37c1.406-5.655 4.315-9.462 15.094-12.201zM217.019 159.902l-1.35.628c.782 1.664.92 2.915.424 3.73-1.163 1.814-5.522 1.814-9.38 1.814h-.302c-5.907 0-24.45 6.204-28.165 10.695l1.147.948c3.135-3.79 21.094-10.161 27.018-10.161h.303c4.436 0 9.043 0 10.63-2.502.81-1.278.705-2.976-.325-5.152"></path><path fill="#848788" d="m213.05 159.97-1.135.974c.38.425.38.601.38.601-.463.689-5.89.937-8.806 1.07l.06 1.498c7.203-.325 9.54-.65 10.118-1.995.413-.937-.364-1.84-.617-2.149M194.266 164.602c-6.045 1.488-11.104 4.31-13.016 5.869l.931 1.157c1.824-1.46 6.63-4.144 12.432-5.554zM192.466 160.71a42 42 0 0 0-8.563 3.151l.661 1.34c1.84-.927 4.761-2.205 8.255-3.048zM190.593 156.458c-1.647.397-3.312.937-4.976 1.56l.54 1.393a38.5 38.5 0 0 1 4.783-1.504zM217.904 156.235c-4.27 0-10.36.496-15.093 2.86-4.282 2.143-6.602 2.43-7.324 1.961-.093-.055-.303-.176-.303-.705h-1.493c0 1.108.55 1.692 1.008 1.978 1.477.915 4.436.265 8.79-1.895 4.463-2.243 10.293-2.706 14.415-2.706zM216.44 152.422c-4.276 0-10.365.507-15.082 2.87-2.331 1.158-4.299 1.874-5.687 2.073l.204 1.488c1.554-.237 3.686-.998 6.144-2.249 4.463-2.231 10.305-2.678 14.421-2.678z"></path><path fill="#fff" d="m223.565 138.592 2.089-.717c-.358-1.151-.926-2.022-1.687-2.568-.754-.534-1.708-.804-2.86-.766-1.427.033-2.578.562-3.46 1.543-.893.998-1.306 2.331-1.273 4.034.055 1.78.545 3.146 1.493 4.105.954.97 2.177 1.411 3.676 1.372 1.317-.038 2.358-.451 3.163-1.25.468-.452.815-1.12 1.036-1.99l-2.155-.44c-.11.545-.358.98-.755 1.327a2.3 2.3 0 0 1-1.46.513c-.794.039-1.45-.243-1.962-.794-.507-.55-.777-1.476-.81-2.76-.044-1.356.182-2.326.65-2.899.474-.595 1.097-.898 1.885-.931a2.1 2.1 0 0 1 1.493.518c.43.341.733.92.937 1.703M232.251 139.493l1.548-.286c1.003-.199 1.637-.27 1.907-.254.27.055.485.165.672.325.188.199.309.436.364.75.072.358.028.666-.121.92-.138.237-.38.435-.706.55-.165.073-.672.172-1.52.337l-1.637.32zm-3.3-5.626 2.022 10.464 4.436-.832c1.118-.237 1.9-.463 2.37-.76.478-.292.815-.711 1.019-1.246.22-.54.264-1.107.148-1.735-.154-.777-.501-1.406-1.069-1.819-.55-.413-1.29-.617-2.22-.567.39-.337.705-.733.947-1.097.226-.38.513-1.03.854-1.934l.877-2.282-2.508.48-1.058 2.59q-.584 1.362-.815 1.741c-.166.232-.347.435-.557.546-.215.126-.562.226-1.041.325l-.447.071-.837-4.358zM241.319 130.533l4.077 9.87 7.296-3.01-.688-1.686-5.307 2.2-.887-2.183 4.932-2.039-.7-1.686-4.932 2.05-1.091-2.662 5.494-2.265-.695-1.686zM257.985 131.55l-2.987-6.375 1.45-.678c.545-.248.953-.402 1.223-.447.347-.088.672-.071.97.022.292.094.617.32.947.69.331.374.678.925 1.03 1.674.337.75.54 1.345.59 1.808.056.457.017.843-.115 1.185-.122.341-.353.628-.684.865-.242.198-.755.474-1.554.854zm-1.196 2.563 3.57-1.654c.794-.385 1.384-.727 1.737-1.047.496-.44.837-.942 1.041-1.576.204-.622.265-1.278.187-2-.077-.7-.325-1.543-.749-2.435-.375-.8-.793-1.439-1.262-1.924-.573-.578-1.18-.997-1.835-1.212-.49-.176-1.069-.215-1.73-.138q-.736.091-1.819.595l-3.659 1.72zM264.494 118.56l2.887 10.271 7.605-2.143-.485-1.758-5.533 1.565-.633-2.254 5.136-1.466-.49-1.752-5.137 1.455-.777-2.767 5.715-1.598-.49-1.763zM291.907 120.168l1.934.849c.325-.634.733-1.053 1.196-1.251s1.014-.198 1.63-.016c.657.22 1.114.512 1.356.909.248.369.315.755.188 1.135-.088.248-.215.435-.408.562-.193.121-.485.198-.87.198-.276.017-.871 0-1.78-.077-1.18-.06-2.062.006-2.624.287a2.75 2.75 0 0 0-1.587 1.752c-.17.513-.17 1.047-.033 1.593.16.556.469 1.03.937 1.438.485.419 1.113.75 1.901.992 1.262.408 2.315.419 3.141.06.821-.358 1.405-.997 1.73-1.934l-2.044-.716c-.248.49-.556.782-.92.926-.364.148-.827.132-1.4-.061-.6-.193-1.014-.446-1.278-.816a.8.8 0 0 1-.127-.727c.077-.242.242-.413.501-.523.331-.133 1.03-.15 2.1-.078 1.074.078 1.896.061 2.447-.027a3 3 0 0 0 1.454-.689c.414-.37.722-.849.92-1.499.188-.573.205-1.19.04-1.796a3.05 3.05 0 0 0-1.004-1.576c-.507-.441-1.217-.805-2.1-1.086-1.283-.402-2.363-.424-3.234-.044-.882.38-1.576 1.13-2.066 2.215M306.057 122.434l-5.076 9.39 1.907 1.03 5.08-9.4zM314.336 131.51l-.7 1.67 4.277 1.807 1.658-3.94c-.242-.578-.688-1.196-1.35-1.851a7.2 7.2 0 0 0-2.198-1.45c-1.042-.44-2.023-.595-2.97-.485a4.36 4.36 0 0 0-2.508 1.141c-.722.628-1.29 1.438-1.686 2.37-.43 1.047-.606 2.044-.513 3.014.089.986.463 1.868 1.108 2.645.49.606 1.207 1.097 2.144 1.482q1.827.778 3.185.425c.898-.21 1.642-.744 2.215-1.549l-1.819-1.196c-.341.42-.76.7-1.267.81-.496.122-1.036.055-1.61-.187-.859-.375-1.426-.942-1.713-1.714-.275-.76-.187-1.686.27-2.766.502-1.201 1.135-1.962 1.901-2.325.772-.38 1.57-.392 2.414-.034.413.182.799.43 1.146.777.353.342.628.684.827 1.053l-.53 1.256zM323.689 131.456l-2.86 10.288 2.022.557 6.134-5.698-1.907 6.866 1.934.54 2.86-10.266-2.088-.6-6.024 5.576 1.869-6.723zM336.8 139.757c.05-1.218.375-2.128.96-2.723.578-.617 1.306-.903 2.17-.865.855.022 1.544.375 2.078 1.025.53.634.766 1.598.717 2.833q-.083 1.844-.926 2.722c-.562.584-1.29.865-2.177.826-.893-.027-1.592-.369-2.116-1.025-.512-.622-.755-1.56-.705-2.793m-2.205-.166c-.05 1.08.072 2.017.37 2.766.22.563.534 1.064.931 1.51.397.452.854.81 1.339 1.025.661.303 1.41.49 2.281.518 1.565.06 2.85-.369 3.825-1.317.986-.937 1.515-2.27 1.587-4.022.071-1.73-.336-3.086-1.23-4.122-.897-1.014-2.126-1.549-3.691-1.62-1.593-.066-2.866.369-3.841 1.311-.975.92-1.499 2.232-1.57 3.951M283.737 120.755a1.306 1.306 0 0 0-2.612 0 1.3 1.3 0 0 0 1.306 1.312c.722 0 1.306-.579 1.306-1.312"></path><path fill="#110f0d" d="M291.14 415.958c-2.138-.281-3.373-1.66-3.373-3.731q-.001-.24.022-.507c.022-.193.06-.43.132-.656l-.016.017c.303-1.99 1.069-3.246 1.686-4.243.535-.888.821-1.356.733-1.94l-.259-2.425-.287-2.121c-.143-.524-1.184-1.934-1.879-2.778-.749-1.19-.87-2.11-.446-2.815.364-.623 1.091-.92 2.028-.866 1.317.072 3.047.882 3.653 2.243.017.006.75 1.912.75 1.912.386 1.025 1.02 2.745 1.322 3.064 1.637 2.293 1.003 4.96.871 5.472l-.452.942c-.231.359-.435.684-.264 2.194.193 1.84-.595 4.022-1.901 5.3-.733.706-1.554 1.048-2.32.938"></path><path fill="#fff" d="M291.247 415.126c1.576.21 3.554-2.722 3.273-5.323-.286-2.607.469-2.42.733-3.439.287-1.02.474-3.075-.644-4.656-.65-.656-1.588-3.747-2.238-5.24-.931-2.05-5.874-2.789-3.824.573 0 0 1.78 2.143 2.05 3.069.28.942.28 2.81.556 4.662.287 1.862-1.857 2.893-2.424 6.442 0 0-.92 3.444 2.518 3.912"></path><path fill="#110f0d" d="M261.445 413.507c-.37-.011-1.61-.26-1.714-2.342-.06-1.24.408-2.646.849-3.99.32-.931.644-1.923.644-2.513l-.192-2.953c-.16-1.786-.254-2.894-.182-3.5l.033-.248c.143-1.173.369-3.146 1.95-3.35.568-.066 1.103.1 1.532.48q1.164 1.032 1.163 3.835c0 1.504-.27 2.755-.496 3.818l-.38 2.337c-.1 1.592-.535 3.968-.821 5.555l-.187.991c-.171 1.058-1.196 1.946-2.2 1.88"></path><path fill="#fff" d="M260.581 411.13c-.104-2.005 1.494-4.86 1.494-6.469 0-1.631-.502-5.356-.375-6.365.116-.975.248-2.733 1.24-2.838.997-.143 1.736.987 1.736 3.467 0 2.496-.744 4.105-.871 6.116-.121 1.973-.805 5.318-.986 6.437-.193 1.135-2.122 2.116-2.238-.348"></path><path fill="#110f0d" d="m247.09 412.97.21.111c-.055-.077-.132-.49-.132-.49s-.028-.265-.061-.524c-.215.127-.446.26-.716.232-.056 0-.094-.072-.144-.072.215.314.485.551.843.744m3.858 9.258c.116-.078.308-.463.21-1.46-.128-1.4-.453-1.637-.458-1.665-.083.039-.38.281-.458.435-.099.513-.374 1.665-1.421 1.758.71.617 1.79 1.086 2.127.932m23.8 18.823c.138 1.35-.766 2.414-1.455 3.114-.275.253-1.152 1.333-.876 3.582.303 2.457 1.345 3.835 3.163 4.215.546.122 1.119-.055 1.703-.49 1.444-1.119 2.446-3.582 2.496-4.778.011-.066.011-.126.011-.182 0-.633-.182-1.008-.397-1.421l-.457-1.725.121-1.444.22-.799c.056-.182.144-.501.188-.738-.98-.006-3.141-.094-4.32-.628-.144.099-.447.793-.397 1.294m.38 16.03c-.215-.021-5.02-.573-7.412-4.579-.86-1.421-1.284-3.102-1.284-4.987 0-2.17.557-4.623 1.665-7.35.01-.045.43-.855.43-.855.225-.435.59-1.13.59-1.394 0-.016-.012-.016-.012-.039 0 .022-.33-.12-.33-.12-1.329-.331-1.863-.618-2.111-.949-.827-.396-1.675-.97-2.601-1.609-1.383-.964-2.954-2.077-4.403-2.364-6.712-1.543-13.925-8.894-14.228-9.197-1.549-1.83-2.122-1.884-2.723-1.945l-1.223-.298c-2.011-1.08-4.386-2.7-5.395-5.83l-.27-.837.865-.237c1.003-.27 1.169-.342 1.604-.623l.568-.292c.567-.215 1.063-.424 1.113-1.752.419-3.67 2.7-5.268 2.794-5.312l.132-.11.17-.04c.932-.181.932-.181 1.725-1.994l.1-.226c.97-2.281 2.22-3.427 3.692-3.427 2.083.033 3.819 2.485 4.667 4.579.706 1.736 1.07 4.215 1.07 6.359 0 .088-.012.16-.012.242.204-.385.518-.755 1.047-.876.981-.231 1.835.579 2.612 1.51.557.678 1.664 1.295 2.546 1.769l1.003.584c1.075.727 1.356.683 1.416.64.039-.012.204-.238.254-.921.115-1.697.744-3.24 1.29-4.612.374-.899.727-1.78.765-2.37-.071-2.579.188-3.686.408-4.64l.242-1.273c.177-1.592-.016-3.273-.462-4.193l-.507-.634c-.359-.402-.805-.893-.733-1.592.071-.717.683-1.235 1.113-1.538 1.08-.777 1.95-.71 2.48-.512 1.014.374 1.752 1.449 2.198 3.223.414 1.681.535 3.28.535 5.158 0 .783-.017 1.61-.05 2.524l-.01.43q-.024.736-.023 1.256c0 1.538.232 2.072 1.527 4.519 1.074 2.044 1.355 3.819 1.355 5.61 0 .881-.071 1.74-.138 2.661l-.104 1.582s-.155 2.6-.177 2.87c.204-.457.485-.853.954-1.046 1.262-.507 2.53.777 3.642 1.917l.281.27c1.488 1.488 2.304 3.632 2.304 6.012 0 .265.038.425.088.568.033-.171.083-.33.083-.661 0-1.4 0-5.687 2.529-5.687 1.256 0 1.79 1.02 2.122 2.375l.006-.16c.082-2.673 1.306-4.078 2.986-6.012l1.124-1.306c1.615-1.945 3.048-2.072 3.863-1.537.43.286.783.854.783 1.67 0 .523-.149 1.173-.535 1.906-.391.755-.534 1.692-.595 2.645.127-.97.573-1.604.937-2.033.33-.397.49-.59.49-.915-.016-.11-.016-.248-.016-.38 0-2.656.744-4.795 1.344-6.53 0 0 .392-1.174.436-1.34.016-2.126.248-3.162.975-4.33.6-.92 1.284-2.006 1.284-3.544 0-.16-.006-.303-.022-.468 0-.017-.463-2.756-.463-2.756l-.17-1.366c-.15-.755-.232-.86-.667-1.438l-1.185-1.72c-.188-.292-.656-1.052-.656-1.818 0-.32.077-.628.276-.898.49-.69 1.476-.893 2.865-.607 1.83.392 3.626 3.505 3.835 5.302.116 1.058.38 1.465 1.279 2.738l1.008 1.455c.711 1.064.97 2.138.97 3.114 0 1.686-.788 3.08-1.422 3.807-.54.595-.86.937-.86 1.472 0 .28.095.622.265 1.085.777 1.94 1.527 6.872 1.554 7.092 0 .121.006.143.011.254.122-.32.27-.634.37-1.07.457-1.432.457-6.805.457-8.568 0-3.549 1.714-4.304 3.168-4.304 2.282 0 3.175 2.463 3.246 3.654 0 .044.116 4.92.116 4.92l.006.392c0 7.814-5.45 12.905-5.681 13.12-1.047 1.135-2.392 1.973-3.808 2.822-1.361.826-2.756 1.67-4.012 2.926-4.414 4.42-11.065 5.681-11.34 5.736-1.714.336-2.073.694-2.073.766l.314.849.463 1.146c.011.094.287 3.268.287 3.268 0 4.695-1.89 7.39-3.494 8.816-1.995 1.824-4.733 2.706-7.489 2.409"></path><path fill="#fff" d="M247.774 419.883c.308.364.496.568.804.617.678.056.755-.738.876-1.245.122-.49 2.177-2.562 2.54 1.427.375 3.979-2.925 2.012-3.846 1.174-2.435-2.171-.683-2.358-.374-1.973m-1.835-9.048c0 .744.942.832 1.03.187.094-.66.92-.418.92.645 0 .419.144.821.199 1.212.088.75-.562 1.323-1.207.943-.661-.38-1.56-.744-1.774-2.155-.188-1.212.832-1.576.832-.832m25.635 37.014c-.265-2.237.474-3.642 1.135-4.287.64-.645 1.3-1.499 1.207-2.425-.094-.942.556-2.612 1.587-2.154 1.02.474 3.262.562 4.287.562s.37 1.51.187 2.232c-.187.754-.187.39-.187 1.592 0 1.229.931 1.68.832 3.367-.094 2.15-2.38 6.673-5.218 6.062-2.607-.557-3.538-2.717-3.83-4.949m-2.601-10.91c1.868.473.656 1.956-.094 3.543-5.88 14.465 6.337 15.76 6.337 15.76 5.406.55 11.369-3.737 9.787-13.44-.463-1.665-2.33-2.965 1.967-3.82 0 0 6.613-1.206 10.906-5.504 2.606-2.596 5.78-3.522 7.825-5.753 0 0 5.598-5.142 5.406-12.89-.182-7.725-.089-4-.089-4.744 0-.738-.65-2.981-2.424-2.981s-2.331 1.389-2.331 3.45c0 2.055 0 7.268-.463 8.767-.562 2.33-2.056 4.292-2.056.744 0 0-.749-5.031-1.482-6.905-.75-1.857-.094-2.507.733-3.444.843-.937 2.055-3.362.38-5.874-1.675-2.513-2.237-2.893-2.43-4.574-.187-1.664-1.863-4.304-3.163-4.563-1.312-.297-2.981-.198-1.587 2.056 1.405 2.237 1.68 1.945 1.95 3.444.287 1.499.1 1.95.656 4.199.182 2.138-.738 3.532-1.4 4.568-.644 1.014-.837 1.95-.837 4.017-.556 1.945-1.862 4.54-1.763 8.084 0 1.328-1.41 1.598-1.494 3.18 0 0 0 2.143-.099 3.18.1 2.424-1.394 2.33-1.394.473 0 0-.75-4.408.557-6.921s-.463-3.824-2.7-1.108c-2.238 2.7-3.83 3.907-3.913 6.795l-.1 2.893s-.743 2.248-1.118-.088-.562-4.205-1.763-4.205c-1.224 0-1.692 2.05-1.692 4.855 0 2.8-1.857 2.143-1.857.093s-.656-4.011-2.056-5.394c-1.394-1.411-3.725-4.111-3.824.54v2.54s-1.482 2.59-1.482-.1c0-2.721.182-4.099.369-7.642.182-3.549.744-6.078-1.03-9.423-1.775-3.367-1.676-3.46-1.576-6.624.077-3.168.077-5.213-.463-7.461-.573-2.248-1.692-3.439-3.362-2.248-1.68 1.229-.193 1.598.364 2.722.562 1.118.744 2.976.562 4.645-.193 1.686-.744 2.16-.65 5.885-.094 1.687-1.863 4.188-2.05 6.988s-2.144 1.488-2.976.942c-.849-.557-2.81-1.394-3.736-2.535-.931-1.102-2.05-2.132-2.524 0-.463 2.166-.182 1.692-.65 2.618-.463.942-2.05.463-1.207-.739.843-1.218.744-6.326-.463-9.323-1.218-2.982-4.386-6.8-6.81-1.13-1.026 2.342-1.026 2.441-2.426 2.706 0 0-2.055 1.421-2.424 4.661-.094 2.348-1.488 2.348-2.056 2.712-.55.374-.843.473-1.857.744.832 2.623 2.7 4.094 4.943 5.323 1.207.556 1.77-.463 4.194 2.413 0 0 7.274 7.456 13.793 8.95 2.705.561 5.411 3.355 7.456 4.198 0 0-.188.27 1.686.744"></path><g id="a"><path fill="#110f0d" d="M246.119 369.907c-.931-3.73-4.287-11.936.738-17.16 0 0 6.161-7.44-1.482-3.532-7.649 3.912-7.842 8.2-9.511 11.737-1.681 3.543-3.362 5.786-6.525 6.9 1.306 1.867 2.237 2.055 3.918 1.675 0 0 1.488 6.711 7.456 8.2-.193-2.05-.931-5.396 1.119-9.12 2.237 2.044 4.287 1.3 4.287 1.3"></path><path fill="#293c8b" d="M245.086 350.703c-6.14 3.02-8.062 14.405-12.283 17.413 0 0 .947-.11 2.309-.259 1.008-.104-.805 4.2 3.223 7.936.105-1.924 1.907-9.131 2.816-9.186 1.14-.056.821.611 2.127.611-1.455-3.097-1.824-8.773 1.808-16.515"></path><path fill="#110f0d" d="M259.47 333.644c-9.456-11.649-21.932-6.441-21.932-6.441-2.42-.182-4.1-1.483-7.076-3.731-.75 1.68-.38 4.485 3.35 7.092-5.03 2.243-13.054 1.68-16.597.931-1.306-1.113-2.607-2.055-5.224-2.237-4.1-2.055-4.1-11.005-4.1-11.005-5.4 2.056-4.662 7.269-4.662 7.269-2.42-2.976-7.263-5.4-6.9-8.382 1.312-6.155-.187-5.968-.187-5.968-.93 2.976-7.444 3.356-9.318 10.994-2.243-.738-2.606 0-4.474.568 2.424 15.291 13.043 17.716 13.043 17.716-8.387-1.505-10.812-5.786-16.218-11.192-2.242 2.794-3.163 6.519-3.163 6.519-2.805-8.023-7.588-25.971 12.046-31.195 0 0-3.229-2.359-7.951-2.976 3.482-1.862 8.949-7.582 11.192-12.062 3.537-3.356 3.912-5.61 4.287-8.398 1.124-1.67 2.612-2.05 2.43-5.764-1.499 1.488-4.728 1.35-4.728 1.35 3.73-11.677 7.208-9.197 4.97-15.16-5.097-.744-7.957 3.67-7.213.987 7.214-17.143-5.466-26.346-5.466-26.346-16.157-11.936-20.637 11.677-11.187 12.19 3.23-.745 5.395-4.486 4.232-4.988-1.746-.733-1.003-3.725.998-3.482 9.191.27 2.728 14.432 2.728 14.432-1.488 2.237-4.971 5.23-5.472 9.202-2.243-3.747-7.71-6.221-10.443-4.232 1.99 3.984-1.736 8.2-2.733 11.936-2.987-3.251-6.464-.254-6.464-.254 4.48 9.699 0 17.408.242 25.117-1.972-3.488-6.712-1.488-8.442 1.466 8.442 1.499 6.337 16.67 6.337 16.67-.87 6.474.133 12.701 3.108 15.556 2.11 1.735 1.24 2.98.127 2.353-1.907-1.058-3.235-.866-3.235-.866-1.614-.137-2.986 1.494-3.852 3.103 3.478.121 6.58 4.342 7.941 5.968 1.378 1.63 3.114 6.331 7.715 5.086 6.47 8.96 20.389 9.825 20.389 9.825 12.426 1.615 29.707-4.965 31.322-5.46.876.12 3.119-.618 3.979-.871.881-.26 1.741-.127 1.741.38 0 .49-.997.611-3.235 1.741-2.849-.132-6.205 1.99-7.202 2.728-.997-.254-3.488.49-6.839 2.226-3.356-.48-11.192 3.235-13.666 4.601-2.744.502-8.09 1.246-8.09 1.246-3.972.264-8.453-2.981-10.817-5.472-1.74 3.471-.369 5.472-.126 6.723.253 1.25.501 3.466-2.486 1.735-2.98-1.735-3.84-2.612-7.577-1.609 1.362 5.952 5.6 7.693 10.316 9.07-.496 3.968 1.99 6.58 3.604 7.456.26-1.994.617-2.11 1.741-5.587 1.12-3.494 5.726-6.348 7.093-6.585 1.372-.26 2.727-.634 4.22-1.494 1.494-.881 2.486-.38 2.486.48 0 .87-.992 2.997-1.868 4.105-.865 1.135-1.863 5.097-1.984 9.081-.127 3.984.242 4.965 3.852 11.446 3.604 6.463 2.987 12.178 2.987 12.178 8.078-1.631 7.825-9.45 7.825-9.45.12-2.502 1.493-4.1 2.86-2.86 1.62 1.735 5.345 3.234 7.962 3.477 2.607.253 6.09 1.746 9.319 3.72 2.485-9.93-7.33-15.028-8.696-16.262-1.372-1.257-1.747-2.998.375-3.373 5.714-1.609 8.205-5.218 7.45-9.191-10.321.242-12.922-8.57-8.701-13.192 4.226-4.59 6.723-3.461 6.723-3.461-1.378 3.218 1.614 8.205 5.703 8.817-1.355-5.599 2.127-8.701 3.979-10.553.248 1.477 1.499 2.226 3.736 2.474 2.232-6.21 15.953-9.202 16.945-9.202 1.736-4.21 5.714-10.437 6.97-10.713"></path><path fill="#293c8b" d="M207.892 357.796c-14.917 10.608-10.437 24.042-8.762 31.134-3.918-15.484 1.483-22.57 5.78-26.665-5.967 16.774 1.687 21.254 5.776 24.053-10.994-9.891-5.962-15.854-2.981-25.177.374 4.667.562 5.598 1.488 8.58-.926-10.818 2.617-11.374 2.617-11.374-.931 4.48 3.169 12.68 10.635 13.038-.562 2.689-2.055 3.18-8.392 6.662-1.874 1.515-.755 3.791 1.119 5.29 1.857 1.488 8.943 5.78 8.574 11.93 0 0-2.303-.931-6.403-1.554-4.106-.622-6.464-1.873-7.462-2.86-.992-.992-4.287-2.413-5.901-.43-1.615 1.984.744 8.195-4.85 10.515 0-2.502-5.66-13.193-6.524-15.176-.876-1.99-2.552-6.844 2.292-17.155 0 0 2.182-3.736.132-4.292-4.105-.75 7.65-6.9 12.862-6.52M177.931 362.575c6.238 4.507 14.2 1.835 14.2 1.835-2.59 1.73-13.147 3.146-14.431 12.404 0 0-1.912-.248-1.521-5.24-4.48-1.412-8.955-2.949-10.239-6.922 1.41-.242 1.532-2.044 7.29 2.309 1.158 1.02 2.69-.121 2.69-1.664.512-3.455-1.532-5.252-.645-6.392 0 0 7.351 6.458 17.05 3.003 0 0-5.373 4.882-14.394.667M249.66 343.242c-12.305 2.887-14.73 6.993-15.01 8.944-1.213-.083-2.244-3.45-2.244-3.45-3.345 1.68-5.962 5.411-6.513 9.891 0 0-2.805-.093-2.248-5.775l-.276-.898s-.121-.127 1.499-1.003c1.615-.876 1.978-2.49 1.108-2.854-.871-.375-2.364-1.003-4.596-.75 0 0-16.537 5.593-24.864 6.084 0 0-19.855 2.739-28.429-9.76-1.868.287-3.08 1.026-4.293-.561-1.212-1.57-7.086-9.478-10.161-9.66 0 0 1.956-1.56 5.224.231 2.143 1.014 3.819-1.642 2.232-3.25-2.475-2.475-4.475-5.093-4.348-9.815.132-4.982 1.493-14.405-1.488-19.265-1.62-2.248-1.868-3.604-3.863-4.237 0 0 2.866-2.723 4.596 0 2.154 3.118 2.898 2.226 2.744 2.116 0 0 0-2.116.617-6.453.623-4.348 1.615-9.082 1.494-11.319-.127-2.226.132-6.464-1.615-9.577 1.863-.49 3.235-1.361 5.345 3.857 0 0-.242-4.094 1.742-7.34 1.994-3.218 2.48-6.326 1.862-7.814 1.62-.253 7.335-.75 9.203 7.577.997-5.091.121-3.736 1.62-6.712 1.482-2.986 4.034-4.794 4.965-7.34.931-2.545 3.439-10.084.253-13.418-2.06-2.149-5.967-2.424-7.279-.947-1.741 2.016-.926 3.912 0 5.047-.738 1.686-2.976 2.998-5.031.739 0 0-4.221-8.206 5.092-11.176 2.055-.369 15.512 2.425 14.862 20.692-.656 4.475-3.08 10.454-3.163 11.368 0 0 1.956-1.069 4.1-2.016 0 0 2.512-1.593 4.661-1.119.364 1.295.463 1.488-1.317 4-1.769 2.524-4.717 8.118-4.717 11.573 2.607-.182 3.759-.403 4.97-1.24 0 0 .1.893-2.236 2.865-.469 2.601-.992 5.737-3.98 8.084-2.143 3.439-6.309 9.688-13.67 13.788 3.917.65 6.557 1.08 7.956 2.093-2.06.574-11.495 4.458-12.316 14.311-.837 10.167 2.337 16.83 4.106 20.395 0 0 1.46-4.695 3.24-7.22 1.95 1.98 8.448 11.038 19.452 9.17 0 0-12.597-4.044-15.099-17.369.832-.755 2.54-.722 4.21.116 0 0 .287-6.541 7.467-9.445 0 0-1.625 5.29.992 7.334 0 0 4.943 3.643 7.836 7.087 0 0-.744-6.58 2.359-8.205-.502 3.113.622 7.55 4.347 10.073 0 0 2.899-.59 5.23 1.741 4.965 1.703 14.173 2.105 19.882-1.862 0 0-3.444-.76-4.227-4.596 2.331 1.769 3.61 2.783 5.842 2.601 0 0 10.861-4.65 19.149 4.232-7.494-3.549-10.933-4.105-17.524-2.981 4.97 1.603 6.955.606 9.197 2.854 0 0-3.857 0-13.92 2.359-10.073 2.358-23.38.87-25.86-3.108 3.477 4.601 10.944 5.962 23.618 4.601 0 0 12.812-1.868 16.162-1.868s6.712 1.119 8.073 2.237c-2.98-.501-3.846-.86-8.822-.369-4.982.49-46.68 13.991-55.254-16.597 0 0 .562 6.326 4.298 11.759 0 0-6.536-2.805-9.897-5.973 0 0 4.48 5.593 13.804 9.863 0 0 9.759 5.814 21.695 5.417 11.936-.363 16.041-1.488 18.394-1.99 0 0-8.398 2.745-11.004 7.594 2.606-2.242 5.786-5.207 9.136-5.604 0 0-4.563 3.825-4.563 6.348.739-1.218 4.756-6.993 9.225-8.486 0 0 1.058-.722 5.406-1.212-.865 1.499-1.488 1.99-1.24 3.857 0 0 1.119-2.744 2.243-3.108 1.118-.374 3.102 0 3.598.496-.865 1.868-1.245 1.251-1.984 3.968a18 18 0 0 0-2.055.38"></path><path fill="#110f0d" d="M174.393 279.478a101 101 0 0 0-4.497 10.525c-1.047-1.785-2.298-8.436-6.943-12.768 3.56 3.56 3.923 9.985 6.535 13.964-4.87 14.162-4.915 25.745-3.466 34.215-2.887-2.353-6.745-4.8-7.726-22.141.805 19.837 3.544 18.531 8.388 25.425v-.027c1.311 5.576 3.174 9.433 4.287 11.423-1.235.033-3.334-.342-10.068-4.221 4.519 3.25 5.378 4.078 11.192 6.061 8.183 13.639 26.688 7.621 39.836 4.673-28.964 1.229-28.964-5.356-31.455-8.464 2.623 10.2 22.754 9.577 22.754 9.577-14.725 3.725-25.112 2.238-30.33-6.469-3.379-6.546-5.12-13.16-5.781-19.535 1.504-9.792 7.896-14.244 10.751-16.614-2.215 1.262-7.6 5.433-11.032 12.652-.292-7.902.953-15.23 2.628-21.314 5.858-3.152 14.537-4.976 21.337-13.865-6.42 7.693-17.187 9.77-20.846 12.134a78 78 0 0 1 4.43-11.55c4.695-1.592 7.07-2.606 14.179-11.891-6.514 7.808-9.56 9.158-13.567 10.613a49 49 0 0 1 1.201-2.215c1.356-2.458 11.93-16.422 11.853-30.016-1.096 11.644-9.428 24.059-12.514 28.296.49-4.16-2.981-12.156-4.508-13.886 2.276 5.45 4.001 9.98 3.626 15.082-.17.198-.264.336-.264.336"></path></g><path fill="#293c8b" d="M280.837 316.976c20.747-17.998 62.672 2.204 62.672 2.204 2.854-6.023 10.872-14.785 21.965-19.513-13.793-16.107-11.798-27.712-11.798-27.712-.441-20.51 4.69-24.726 5.284-48.989.69-36.948-18.962-48.443-35.824-52.184-16.873-3.73-37.262-15.226-42.299-23.695-5.026 8.47-25.42 19.964-42.288 23.695-16.868 3.741-36.513 15.236-35.824 52.184.595 24.263 5.725 28.479 5.279 48.989 0 0 1.984 11.605-11.793 27.712 11.088 4.728 19.105 13.49 21.96 19.513 0 0 41.919-20.202 62.666-2.204"></path><path fill="#fff" d="M351.81 271.955c0 4.177.027 13.716 10.68 27.04-9.363 4.58-16.472 11.93-19.806 17.76-7.94-3.537-42.288-17.324-61.845-2.148-19.557-15.176-53.893-1.389-61.85 2.149-3.329-5.83-10.437-13.17-19.8-17.76 11.76-14.72 10.895-25.547 10.69-27.167.205-10.537-1.046-16.912-2.363-23.663-1.295-6.64-2.64-13.484-2.92-25.232-.53-28.22 11.026-45.159 34.357-50.328 16.009-3.548 34.794-13.72 41.886-22.334 7.103 8.613 25.889 18.786 41.886 22.334 23.332 5.17 34.893 22.108 34.364 50.328-.287 11.748-1.62 18.592-2.915 25.232-1.334 6.778-2.59 13.198-2.364 23.79"></path><path fill="#293c8b" d="M351.237 247.591c-1.356 6.921-2.64 13.5-2.403 24.362 0 4.116.006 13.347 9.18 26.06-7.565 4.391-13.175 10.155-16.481 14.999-11.876-4.954-41.429-14.978-60.694-2.089-19.265-12.889-48.812-2.865-60.688 2.089-3.311-4.844-8.921-10.608-16.476-14.994 9.82-13.639 9.456-23.839 9.18-26.33.193-10.74-1.063-17.236-2.419-24.097-1.267-6.508-2.579-13.214-2.865-24.715-.502-26.973 9.968-42.464 32.033-47.357 14.95-3.312 32.49-12.316 41.235-20.896 8.751 8.58 26.286 17.584 41.241 20.896 22.054 4.893 32.535 20.384 32.028 47.335-.276 11.5-1.598 18.213-2.871 24.71z"></path><path fill="#fff" d="M327.817 243.009c-1.45 7.428-3.097 15.837-2.86 28.946 0 1.538 0 4.017.347 7.208l.424 3.94-3.912-.683c-14.912-2.65-28.396-2.028-40.034 1.807l-.943.33-.931-.33c-11.644-3.835-25.095-4.458-39.98-1.824l-3.934.7.458-3.962c.402-3.543.369-6.293.286-7.99l-.006-.094v-.094c.127-12.657-1.455-20.796-2.865-27.971-1.18-6.028-2.199-11.23-2.43-20.543-.364-19.067 5.56-21.915 13.313-23.635 11.12-2.435 23.718-7.472 34.595-13.77l1.494-.882 1.499.881c10.866 6.299 23.475 11.336 34.573 13.771 7.775 1.72 13.688 4.546 13.341 23.447-.231 9.5-1.25 14.703-2.436 20.748"></path><path fill="#293c8b" d="M324.881 242.428c-1.476 7.582-3.163 16.168-2.91 29.586 0 1.636.017 4.193.364 7.472-15.424-2.733-29.354-2.105-41.5 1.923-12.123-4.023-26.026-4.656-41.411-1.945.385-3.532.402-6.403.292-8.47.137-12.944-1.488-21.254-2.927-28.572-1.151-5.913-2.149-10.999-2.375-20.047-.336-18.13 5.164-19.353 11-20.637 11.517-2.551 24.307-7.687 35.421-14.118 11.12 6.431 23.9 11.567 35.439 14.118 5.819 1.284 11.33 2.507 10.999 20.466-.226 9.236-1.229 14.333-2.392 20.224"></path><path fill="#c2c3c4" d="M325.409 222.161c-.232 9.065-1.213 14.08-2.359 19.904-1.493 7.66-3.201 16.355-2.937 29.95 0 1.113 0 2.948.154 5.257-14.526-2.265-27.778-1.554-39.428 2.187-11.627-3.725-24.863-4.452-39.35-2.187.192-2.733.165-4.888.099-6.266.126-13.153-1.516-21.535-2.965-28.94-1.14-5.809-2.122-10.834-2.337-19.717-.308-16.62 4.034-17.573 9.528-18.802 11.258-2.486 23.96-7.495 35.025-13.81 11.082 6.315 23.773 11.324 35.025 13.81 5.505 1.229 9.853 2.182 9.545 18.614"></path><path fill="#fff" d="M221.905 290.27c.231-.644-.689-1.366-.689-1.983 0-.628.149-1.438 3.527-1.438 1.339-.42 1.862-.42 2.54-.42.656 0 1.857.282.656 2.194"></path><path fill="#fff" d="M214.67 301.445c2.193.556 1.725 3.438 4.486 3.234 0 0 2.21-.286 2.683-.286s1.433-.76 1.907-1.626c.474-.848 1.615-2.198 1.918-3.73 1.047-.094 5.444-3.147 7.35-5.252 1.918-2.116 4.018-1.714 4.784-1.807.766-.116 2.105-1.058.579-2.105-1.538-1.064-10.046-2.778-16.824.562-4.497 2.584-4.596 6.706-5.07 8.034 0 0-.033 1.152-1.245 1.152s-2.094.948-.568 1.824"></path><path fill="#293c8b" d="M219.96 301.919a.833.833 0 0 0-.832-.838.827.827 0 0 0-.822.838c0 .446.364.832.822.832a.84.84 0 0 0 .832-.832"></path><path fill="#4246a3" d="M236.47 290.122h-.011c-7.748.237-12.173 1.477-13.567 3.797-.998 1.68-.11 3.433.358 4.392.083.127.143.259.182.358.088.204.303.281.507.204.182-.083.259-.303.182-.496-.05-.105-.122-.248-.199-.413-.446-.865-1.179-2.337-.385-3.66.848-1.415 3.78-3.179 12.938-3.432.21 0 .364-.177.359-.38-.006-.199-.171-.37-.364-.37"></path><path fill="#fff" d="M331.939 290.27c.226-.644-.69-1.366-.69-1.983 0-.628.144-1.438 3.539-1.438 1.333-.42 1.862-.42 2.524-.42.672 0 1.862.282.672 2.194"></path><path fill="#fff" d="M324.709 301.445c2.199.556 1.72 3.438 4.491 3.234 0 0 2.193-.286 2.678-.286.474 0 1.433-.76 1.901-1.626.474-.848 1.62-2.198 1.912-3.73 1.053-.094 5.45-3.147 7.368-5.252 1.907-2.116 4.012-1.714 4.772-1.807.766-.116 2.11-1.058.573-2.105-1.52-1.064-10.034-2.778-16.812.562-4.497 2.584-4.59 6.706-5.076 8.034 0 0-.027 1.152-1.234 1.152-1.218 0-2.11.948-.573 1.824"></path><path fill="#293c8b" d="M329.99 301.919a.827.827 0 0 0-.82-.838.83.83 0 0 0-.827.838c0 .446.364.832.827.832a.833.833 0 0 0 .82-.832"></path><path fill="#4246a3" d="M346.495 290.122h-.006c-7.736.237-12.167 1.477-13.561 3.797-1.003 1.68-.116 3.433.353 4.392.088.127.143.259.192.358a.372.372 0 1 0 .684-.292c-.05-.105-.121-.248-.204-.413-.435-.865-1.174-2.337-.386-3.66.854-1.415 3.78-3.179 12.944-3.432.204 0 .37-.177.353-.38a.38.38 0 0 0-.37-.37"></path><path fill="#fff" d="M278.313 290.27c.237-.644-.678-1.366-.678-1.983 0-.628.144-1.438 3.527-1.438 1.345-.42 1.868-.42 2.53-.42.666 0 1.862.282.666 2.194"></path><path fill="#fff" d="M271.086 301.445c2.198.556 1.719 3.438 4.49 3.234 0 0 2.205-.286 2.679-.286s1.433-.76 1.906-1.626c.474-.848 1.62-2.198 1.907-3.73 1.053-.094 5.461-3.147 7.362-5.252 1.907-2.116 4.023-1.714 4.783-1.807.76-.116 2.105-1.058.573-2.105-1.537-1.064-10.04-2.778-16.818.562-4.496 2.584-4.585 6.706-5.075 8.034 0 0-.028 1.152-1.24 1.152-1.218 0-2.105.948-.567 1.824"></path><path fill="#c2c3c4" d="M276.373 301.919a.833.833 0 0 0-.832-.838.83.83 0 0 0-.827.838c0 .446.37.832.827.832a.84.84 0 0 0 .832-.832"></path><path fill="#4246a3" d="M292.875 290.122h-.01c-7.726.237-12.162 1.477-13.557 3.797-.997 1.68-.12 3.433.359 4.392.071.127.137.259.187.358.077.204.309.281.49.204a.383.383 0 0 0 .193-.496 7 7 0 0 1-.193-.413c-.451-.865-1.184-2.337-.39-3.66.848-1.415 3.768-3.179 12.927-3.432.215 0 .37-.177.364-.38a.38.38 0 0 0-.37-.37"></path><path fill="#fff" d="M337.03 236.987c.154-.48-.502-1.008-.502-1.455 0-.451.1-1.052 2.568-1.052.975-.303 1.361-.303 1.846-.303.49 0 1.367.198.49 1.609"></path><path fill="#fff" d="M331.748 245.119c1.61.413 1.262 2.507 3.284 2.364 0 0 1.598-.204 1.951-.204.342 0 1.047-.557 1.389-1.19.347-.623 1.179-1.593 1.394-2.706.766-.083 3.956-2.315 5.362-3.852 1.394-1.521 2.926-1.251 3.488-1.323.556-.055 1.526-.766.408-1.52-1.102-.772-7.307-2.017-12.25.407-3.274 1.885-3.34 4.877-3.698 5.858 0 0-.022.838-.904.838-.876 0-1.532.705-.424 1.328"></path><path fill="#293c8b" d="M335.614 245.468a.6.6 0 0 0-.6-.612.6.6 0 0 0-.607.612c0 .33.265.595.607.595.336 0 .6-.264.6-.595"></path><path fill="#4246a3" d="M347.637 236.872c-5.638.17-8.878 1.063-9.88 2.766-.734 1.212-.089 2.513.253 3.201.066.094.104.193.137.276.061.132.22.187.359.132.137-.055.198-.215.137-.364a5 5 0 0 0-.148-.292c-.325-.655-.855-1.708-.27-2.661.617-1.053 2.744-2.32 9.428-2.518a.25.25 0 0 0 .254-.27.274.274 0 0 0-.27-.27"></path><path fill="#fff" d="M218.133 236.987c.16-.48-.502-1.008-.502-1.455 0-.451.1-1.052 2.574-1.052.97-.303 1.355-.303 1.846-.303.485 0 1.356.198.485 1.609"></path><path fill="#fff" d="M212.857 245.119c1.609.413 1.256 2.507 3.278 2.364 0 0 1.598-.204 1.946-.204s1.047-.557 1.394-1.19c.347-.623 1.184-1.593 1.394-2.706.766-.083 3.962-2.315 5.356-3.852 1.394-1.521 2.937-1.251 3.494-1.323.55-.055 1.52-.766.408-1.52-1.108-.772-7.313-2.017-12.256.407-3.284 1.885-3.334 4.877-3.692 5.858 0 0-.016.838-.904.838-.876 0-1.532.705-.418 1.328"></path><path fill="#293c8b" d="M216.71 245.468a.6.6 0 0 0-.596-.612.61.61 0 0 0-.611.612c0 .33.275.595.611.595.331 0 .596-.264.596-.595"></path><path fill="#4246a3" d="M228.742 236.872h-.016c-5.626.17-8.861 1.063-9.87 2.766-.738 1.212-.088 2.513.254 3.201.06.094.105.193.143.276.055.132.215.198.353.132a.27.27 0 0 0 .132-.364c-.033-.071-.077-.181-.143-.292-.325-.655-.849-1.708-.276-2.678.618-1.036 2.756-2.303 9.423-2.501a.26.26 0 0 0 .27-.27.274.274 0 0 0-.27-.27"></path><path fill="#fff" d="M226.627 189.852c.177-.507-.556-1.086-.556-1.57 0-.513.116-1.158 2.838-1.158 1.069-.363 1.493-.363 2.033-.363.535 0 1.483.242.535 1.79"></path><path fill="#fff" d="M220.815 198.817c1.78.457 1.384 2.777 3.599 2.607 0 0 1.774-.237 2.16-.237s1.146-.612 1.526-1.3c.38-.69 1.306-1.77 1.532-2.971.849-.083 4.381-2.551 5.908-4.232 1.532-1.692 3.218-1.394 3.84-1.466.607-.083 1.681-.838.458-1.686-1.223-.843-8.062-2.22-13.501.446-3.593 2.089-3.676 5.378-4.056 6.47 0 0-.027.903-1.003.903-.964 0-1.686.766-.463 1.466"></path><path fill="#293c8b" d="M225.067 199.197a.68.68 0 0 0-.667-.678c-.37 0-.667.325-.667.678a.667.667 0 1 0 1.334 0"></path><path fill="#4246a3" d="M238.302 189.738h-.01c-6.2.188-9.755 1.174-10.873 3.042-.805 1.345-.094 2.761.292 3.522.055.104.105.214.143.32.072.131.248.214.391.131.155-.066.226-.237.16-.374-.044-.094-.099-.237-.165-.353-.353-.7-.937-1.857-.309-2.926.684-1.14 3.031-2.535 10.382-2.777.16 0 .292-.122.287-.281a.31.31 0 0 0-.298-.304"></path><path fill="#fff" d="M330.133 189.852c.177-.507-.556-1.086-.556-1.57 0-.513.127-1.158 2.843-1.158 1.064-.363 1.488-.363 2.017-.363.54 0 1.51.242.54 1.79"></path><path fill="#fff" d="M324.33 198.817c1.763.457 1.388 2.777 3.604 2.607 0 0 1.769-.237 2.143-.237.38 0 1.163-.612 1.538-1.3.374-.69 1.295-1.77 1.532-2.971.832-.083 4.37-2.551 5.896-4.232 1.537-1.692 3.23-1.394 3.84-1.466.612-.083 1.687-.838.458-1.686-1.218-.843-8.062-2.22-13.495.446-3.61 2.089-3.676 5.378-4.073 6.47 0 0-.016.903-.986.903s-1.692.766-.457 1.466"></path><path fill="#293c8b" d="M328.565 199.197c0-.353-.287-.678-.656-.678a.68.68 0 0 0-.667.678.661.661 0 1 0 1.323 0"></path><path fill="#4246a3" d="M341.808 189.738h-.006c-6.205.188-9.76 1.174-10.878 3.042-.81 1.345-.088 2.761.292 3.522.055.104.11.214.15.32.06.131.242.214.38.131.165-.066.23-.237.176-.374-.05-.094-.11-.237-.177-.353-.352-.7-.936-1.857-.303-2.926.678-1.14 3.026-2.535 10.377-2.777.16 0 .292-.122.286-.281-.01-.166-.138-.304-.297-.304"></path><path fill="#fff" d="M276.446 167.39c.237-.656-.695-1.378-.69-2.022.007-.634.155-1.46 3.616-1.45 1.35-.418 1.895-.418 2.579-.418.667 0 1.89.314.661 2.248"></path><path fill="#fff" d="M269.022 178.726c2.232.595 1.73 3.52 4.552 3.35 0 0 2.248-.297 2.733-.297.49.01 1.455-.772 1.95-1.643.491-.87 1.665-2.226 1.957-3.769 1.08-.104 5.577-3.196 7.538-5.34 1.962-2.127 4.095-1.735 4.883-1.807.771-.11 2.149-1.08.595-2.143-1.554-1.086-10.217-2.877-17.144.479-4.584 2.612-4.711 6.805-5.207 8.15 0 0-.033 1.168-1.279 1.168-1.234-.016-2.138.959-.578 1.852"></path><path fill="#293c8b" d="M274.406 179.229a.84.84 0 0 0-.843-.832.853.853 0 0 0-.849.832c0 .474.375.854.838.854a.84.84 0 0 0 .854-.854"></path><path fill="#4246a3" d="M291.282 167.339h-.016c-7.875.187-12.399 1.41-13.826 3.769-1.03 1.692-.149 3.51.33 4.464.078.16.15.292.193.402.083.204.303.286.496.204a.39.39 0 0 0 .204-.502q-.09-.183-.204-.424c-.44-.91-1.179-2.397-.369-3.736.865-1.45 3.863-3.196 13.192-3.411.21 0 .38-.21.38-.408s-.181-.358-.38-.358"></path><g fill="#110f0d"><path d="M285.23 211.105c0-.909-.743-1.636-1.653-1.636h-4.948c-.904 0-1.653.727-1.653 1.636v2.987c0 .887.75 1.648 1.653 1.648h4.948c.91 0 1.654-.76 1.654-1.648z"></path><path d="M284.267 220.914a8 8 0 0 1-.965-.012s-1.196-.199-1.863-.199-1.731.15-2.266.15c0 0-6.717.589-2.039-6.073l8.013-.192c1.193 1.55 3.492 6.091-.88 6.326m-2.894-2.745c1.99 0 2.452-1.25 1.929-2.43h-3.924c-1.13 1.653 0 2.43 1.995 2.43M278.628 209.467c-.722-.722-2.116-2.199-2.116-4.662 0-1.444-2.866-.849-3.73-1.714 0 0-3.324-2.601-1.064-6.403.804 3.13 1.67 3.13 2.788 3.538 1.135.413 4.805 1.47 4.805 4.656 0 3.207.017 3.224 1.389 4.585M281.111 209.467c.65-1.064.458-2.519.127-4.387-.325-1.862 1.659-2.656 2.728-2.98 1.063-.348 3.582-2.084 3.582-4.062.904.882 2.97 1.25 1.934 3.912 1.466-.474 2.458-.253 2.866-.66 0 .81-2.535 3.658-5.324 2.793s-3.852 1.67-3.852 2.518c0 .865-.099 2.425-.54 2.866M276.979 211.528c-2.728-.854-5.197-1.67-7.583-3.389-1.201-.87-1.097-1.157-.87-2.33 0 0 .6-3.511 2.463-1.268 1.868 2.281 2.931 3.543 4.386 4.204l2.188 1.108M285.23 211.105c2.789-1.609 4.905-3.223 6.382-3.692 1.46-.462 1.394-.407 2.391-1.388-.832-.832-1.195-1.003-1.195-1.742s-.871-1.333-2.2.739c-1.696 1.686-5.63 3.664-6.502 4.535"></path><path d="m295.527 263.945-1.81-1.343c-1.273-.945-1.954-1.868-2.383-2.625a42 42 0 0 1-2.995.47c-2.809.336-5.61.486-7.501.486-1.887 0-4.69-.15-7.502-.486a41 41 0 0 1-3.083-.469c-.432.761-1.117 1.688-2.395 2.631l-1.81 1.335-2.234-.24s-2.896.141-6.058-2.409l-.014-.012-.014-.011c-.475-.388-1.126-.767-2.105-1.919s-1.812-3.28-1.889-4.865l-.054-1.125.373-1.065c.483-1.376 1.42-2.432 1.94-2.914.358-.333.404-.357.5-.432.043-.607.145-1.162.309-1.607a23.8 23.8 0 0 1-.49-4.815c0-1.173.083-2.86.49-4.82-.161-.442-.262-.99-.305-1.59-.094-.074-.134-.094-.486-.418-.516-.475-1.463-1.523-1.953-2.905l-.378-1.072.054-1.137c.077-1.585.9-3.703 1.875-4.858.975-1.156 1.627-1.54 2.105-1.933l.04-.031.041-.032c3.146-2.493 5.985-2.371 5.985-2.371l2.232-.252 1.816 1.322c1.298.945 1.991 1.88 2.427 2.647 1.008-.2 2.037-.346 3.08-.47 2.815-.337 5.62-.485 7.503-.485 1.887 0 4.692.148 7.504.484 1.018.122 2.017.266 3 .458.433-.761 1.118-1.686 2.403-2.626l1.827-1.336v.001l2.248.26s2.823-.133 5.974 2.373l.028.025.031.024c.483.395 1.14.78 2.117 1.937.978 1.156 1.811 3.29 1.882 4.886l.048 1.108-.364 1.048c-.485 1.392-1.434 2.45-1.952 2.928-.349.323-.387.341-.484.418-.044.645-.154 1.24-.336 1.696l-.008.02-.008.02-.007.017c.38 1.884.46 3.506.46 4.664 0 1.154-.082 2.776-.463 4.664q.004.008.009.017l.01.023.01.024c.182.458.29 1.054.335 1.701.099.079.142.1.496.43.522.486 1.464 1.552 1.943 2.94l.359 1.038-.048 1.097c-.07 1.598-.913 3.747-1.899 4.902-.984 1.153-1.633 1.527-2.11 1.914l-.004.001c-3.174 2.582-6.07 2.424-6.07 2.424z"></path></g><path fill="#57b235" d="M276.979 214.092c-4.602 1.235-19.221 5.792-22.572 9.522-3.345 3.714-2.05 12.3-2.05 12.3.937 5.23 7.087 3.163 4.293 13.61-2.612-1.305-4.667-8.21-4.667-8.21-2.976 13.804 2.606 17.716 2.606 17.716 5.224 5.974 15.667 4.86 14.862 9.445-7.29 3.951-14.415-3.962-16.658-9.687 0 0-1.703 8.36-5.516 9.957-.397-3.003-1.444-8.034 2.838-11.946-1.3-4.662.192-10.62-.364-16.041 0 0-1.675 5.775-4.855 7.835-.744-7.45-1.863-7.45 4.662-14.365.937-1.114 1.504-4.47 1.312-5.968-.188-1.472-2.238 2.821-6.349 5.968 0 0-3.907-6.9 6.349-10.614 0 0 6.888-4.86 11.18-5.973-6.899 0-9.693 1.306-12.492-.926 3.913-1.68 3.736-3.538 8.585-3.73 4.839-.188 4.48 3.537 6.338 3.355 1.868-.198 12.63-4.182 12.63-4.182M285.23 214.092c4.596 1.235 19.21 5.792 22.56 9.522 3.362 3.714 2.05 12.3 2.05 12.3-.92 5.23-7.08 3.163-4.286 13.61 2.617-1.305 4.662-8.21 4.662-8.21 2.992 13.804-2.607 17.716-2.607 17.716-5.218 5.974-15.666 4.86-14.85 9.445 7.273 3.951 14.41-3.962 16.652-9.687 0 0 1.708 8.36 5.516 9.957.397-3.003 1.444-8.034-2.843-11.946 1.306-4.662-.177-10.62.374-16.041 0 0 1.676 5.775 4.844 7.835.75-7.45 1.874-7.45-4.656-14.365-.937-1.114-1.494-4.47-1.306-5.968.187-1.472 2.242 2.821 6.342 5.968 0 0 3.913-6.9-6.342-10.614 0 0-6.9-4.86-11.192-5.973 6.899 0 9.693 1.306 12.498-.926-3.924-1.68-3.725-3.538-8.58-3.73-4.85-.188-4.475 3.537-6.337 3.355-1.863-.198-12.63-4.182-12.63-4.182"></path><path fill="#141311" d="M263.937 391.84c2.17-.92 6.96-2.479 8.073-2.854 0 0 1.526-.529 1.526-3.041 0-1.312-.931-1.505-2.805-.833-1.851.65-7.82 2.695-7.82 2.695s-2.705.562-1.68 3.257c.375.937.656 1.647 2.706.777M298.585 391.84c-2.16-.92-6.96-2.479-8.084-2.854 0 0-1.526-.529-1.526-3.041 0-1.312.936-1.505 2.804-.833 1.868.65 7.836 2.695 7.836 2.695s2.7.562 1.676 3.257c-.375.937-.656 1.647-2.706.777M263.937 376.044c2.17.91 6.96 2.474 8.073 2.849 0 0 1.526.523 1.526 3.053 0 1.295-.931 1.482-2.805.826-1.851-.65-7.82-2.705-7.82-2.705s-2.705-.552-1.68-3.252c.375-.953.656-1.647 2.706-.771M298.585 376.044c-2.16.91-6.96 2.474-8.084 2.849 0 0-1.526.523-1.526 3.053 0 1.295.936 1.482 2.804.826 1.868-.65 7.836-2.705 7.836-2.705s2.7-.552 1.676-3.252c-.375-.953-.656-1.647-2.706-.771M286.44 380.968c0-1.604-1.158-2.887-2.602-2.887h-5.384c-1.427 0-2.59 1.283-2.59 2.887v6.227c0 1.592 1.163 2.898 2.59 2.898h5.384c1.444 0 2.601-1.306 2.601-2.898z"></path><path fill="#231f20" d="M280.345 375.505c-2.683 0-5.615-.215-8.568-.672-.656-.921-.814-2.311.046-3.213-.86.9-.704 2.292-.048 3.213-2.976-.458-5.946-1.212-8.69-2.292-2.133-.838-4.134-1.89-5.858-3.191-2.116-1.995 0-4.6 2.98-2.484 1.268.903 2.662 1.647 4.155 2.27 2.398 1.008 5.048 1.674 7.891 2.131h.002c2.573.38 5.285.59 8.09.683a62 62 0 0 0 4.364-.26l-.001.002c3.254-.28 6.338-.794 9.151-1.658l.002-.001c2.441-.75 4.678-1.791 6.623-3.169 2.982-2.116 5.092.491 2.982 2.486-2.728 2.06-6.129 3.471-9.716 4.469a50.4 50.4 0 0 1-9.397 1.515l-.001-.001c-1.382.11-2.73.172-4.007.172"></path><path fill="#fff" d="M306.517 311.548c-3.031-1.13-6.966-3.863-12.404-9.053-13.656-13.082-26.324-13.661-33.648-14.868-7.329-1.18-8.117 1.598-8.117 1.598-.986 2.778-2.97 8.128-2.772 18.405a11.9 11.9 0 0 0 1.135 4.767s20.136-2.849 31.317 8.348c9.197-9.687 24.489-9.197 24.489-9.197"></path><path fill="#110f0d" d="M285.936 349.089c-.215-1.02-1.262-1.648-2.342-1.411-1.075.237-1.774 1.223-1.548 2.248.214 1.003 1.256 1.653 2.336 1.427 1.08-.236 1.774-1.234 1.554-2.264M275.905 370.213c-7.952-1.146-14.24-5.02-18.201-11.225l-.022-.038-.033-.044c-.507-1.08-.882-1.824-1.538-2.535l-.716-.744 1.223-.75c4.767-2.887 7.649-4.634 22.632-4.656l.27 1.637c-.187.071-.358.385-.419.75-.088.572.055 1.305.568 1.68.59.44 1.609.341 2.876-.292l.403-.22.705.556.672.386.105.534c-.017 1.565-.336 3.152-4.15 5.367-1.89 1.108-2.231 3.384-2.556 5.616-.21 1.366-.397 2.661-.987 3.598l-.292.457z"></path><path fill="#c2c3c4" d="M282.92 354.731c.115.226.352.408.655.524-.006 1.311-.198 2.595-3.72 4.634-3.51 2.056-2.48 7.34-3.83 9.495-5.95-.854-12.955-3.549-17.605-10.85-.507-1.07-.932-1.935-1.681-2.734 4.833-2.926 7.423-4.7 22.51-4.717-1.9.612-1.416 6.189 3.67 3.648"></path><path fill="#110f0d" d="m279.731 370.539-.986-.017.198-1.069.33-1.928c.221-1.67.458-3.538 1.902-5.037l.071-.083.094-.05c4.8-2.909 6.613-7.135 6.26-9.847l-.066-.523.446-.292c.744-.485 1.12-1.212 1.092-1.67 0-.17-.05-.352-.37-.512l-1.388-.69 1.427-.837c.088-.11.033-.782-.557-1.449-.248-.292-.936-.931-1.647-.468l-1.587.997.292-1.851c.022-.177-.017-.276-.072-.342-.143-.17-.468-.309-.854-.336l-.744-.05-.044-.75c-.1-1.785-3.036-4.87-4.86-6.397a43 43 0 0 1-.458-.485c-1.18-1.361-2.496-2.739-3.284-2.138-.083.066-.1.11-.105.176-.027.728 1.207 2.177 2.05 2.937 1.68 1.665 4.144 4.122 3.417 7.6l-.215 1.046-.948-.435c-10.52-4.667-17.435-3.14-22.285-1.3l-2.336.909 1.322-2.133c.739-1.184 1.444-2.606 2.188-4.325 1.113-2.805 6.354-5.153 10.575-6.63.093-.033 2.017-.578 2.017-4.772 0-.843-.1-1.873-.287-3.047-2.281-1.356-6.084-4.767-6.084-12.641 0-2.37.342-5.169 1.19-8.415l.221-.815.816.22c7.676 1.956 17.463 8.685 20.527 16.548 2.793 7.18 11.66 6.067 11.754 6.05l2.204-.33-1.41 1.675-.998 1.202c-1.543 1.813-2.656 3.102-2.116 5.576.358 1.714 1.587 2.491 3.311 3.544 2.47 1.548 5.533 3.46 6.762 9.18 1.973 15.407-13.49 22.246-19.067 23.442-.12 0-3.278.705-7.698.562"></path><path fill="#c2c3c4" d="M287.257 369.137s-3.136.7-7.506.551c.601-2.006.199-4.722 2.034-6.618 4.96-3.009 7.07-7.461 6.651-10.668 1.433-.915 2.16-2.882.656-3.66 1.625-.76-.794-4.8-3.014-3.394.148-1.008-.7-1.576-1.703-1.642-.154-2.832-5.164-7.02-5.164-7.02-1.135-1.257-3.152-3.89-4.8-2.645-1.641 1.245 1.902 4.424 1.902 4.424 1.57 1.576 3.78 3.77 3.146 6.8-10.988-4.865-18.074-3.14-22.913-1.306.695-1.113 1.428-2.523 2.249-4.447 1.107-2.804 7.412-5.212 10.062-6.16 0 0 3.73-.733 2.243-9.137-2.43-1.284-8.586-5.962-4.85-20.317 7.269 1.857 16.968 8.393 19.949 16.036 2.981 7.637 12.305 6.662 12.674 6.59-1.862 2.364-4.034 3.973-3.29 7.483 1.047 4.9 8.112 3.445 10.09 12.708 1.824 14.277-12.19 21.088-18.416 22.422"></path><path fill="#110f0d" d="m253.155 354.322-1.587-.755c-.97-.44-1.51-.964-1.653-1.675-.254-1.218.727-2.298 1.774-3.433l.17-.199 2.084-2.215.22-.066c5.285-1.785 15.612-4.182 25.487-.457l1.339.507-1.103.92c-.81.689-1.36 1.835-1.234 2.562l.193 1.047-1.064-.05c-14.277-.705-19.76 1.918-22.383 3.191l-1.99.838z"></path><path fill="#c2c3c4" d="M279.346 346.296c-.97.838-1.719 2.26-1.52 3.356-17.678-.854-22.01 3.273-24.291 3.912-.48-.242-1.02-.49-1.626-.771-2.242-.987-.881-2.353.579-3.973.667-.722 1.3-1.345 1.945-2.056 3.676-1.223 14.565-4.353 24.913-.468"></path><path fill="#fff" d="M274.452 329.88c0-1.537-.127-6.464-.37-8.111-.258-1.648-.12-3.516 1.98-3.516 2.11 0 3.228.237 2 4.122-.756 2.226-.26 3.394-.26 6.1 0 2.69-3.35 3.273-3.35 1.405"></path><path fill="#fff" d="M283.77 319.005c1.653 1.78-11.374-12.675-15.91-11.49-.738 2.965-.12 10.002 1.682 12.107 0 0-1.18-7.335.06-8.95 1.245-1.603 11.738 5.726 14.168 8.333"></path><path fill="#110f0d" d="m300.103 327.179-1.957-.165s.623-.557 1.064-.954h-3.136c-6.904 0-10.145-8.442-10.448-9.263-4.59-7.489-12.244-12.564-20.593-13.721-.86 3.157-1.262 6.078-1.262 8.613 0 5.791 1.868 9.682 3.951 10.646.287.143.976.446.976 1.08a.9.9 0 0 1-.044.26c-.237.831-1.174.705-1.521.65-2.524-.304-16.317-4.497-16.642-15.37-.193-9.681 1.626-14.779 2.606-17.506.133-.43 1.207-3.378 8.624-2.177l2.188.336c7.236 1.02 18.168 2.59 29.956 13.876 13.043 12.475 16.338 9.18 19.507 6.012l.314-.309 5.059.772-.028.738c0 2.254-2.21 8.343-6.629 12.36-3.428 3.152-7.456 4.53-11.986 4.122"></path><path fill="#c2c3c4" d="M300.18 326.336c12.432 1.124 17.695-12.57 17.695-15.639-1.516-.292-3.902-.606-3.902-.606-3.918 3.918-7.83 6.304-20.697-6.006-12.862-12.289-24.781-12.873-31.686-13.991-6.9-1.113-7.649 1.504-7.649 1.504-.937 2.601-2.8 7.632-2.606 17.342.369 12.294 19.766 15.903 16.03 14.173-3.72-1.742-6.09-10.305-2.976-21.023 7.82.87 16.52 5.35 21.993 14.305 0 0 3.102 8.812 9.693 8.812h4.976c.623 0-.87 1.13-.87 1.13"></path><path fill="#fff" d="M259.532 317.14c-1.984-2.965-6.9-6.706-3.34-20.896.728-3.35 5.02-1.852 8.002-1.295 2.992.557 15.661 1.488 25.354 11.743 9.704 10.26 13.991 13.997 22.566 11.192-2.056 2.05-3.543 2.805-3.543 2.805s-8.95 1.658-21.436-13.617c-7.467-7.841-23.492-8.954-26.479-9.324 0 0-2.237-.75-2.98 6.514-.558 4.292-.381 8.205 1.856 12.878"></path><use xlink:href="#a" width="100%" height="100%" transform="matrix(-1 0 0 1 559.933 0)"></use></g><!-- source: https://football-logos.cc --></svg>